<svg width="1200" height="630" viewBox="0 0 1200 630" fill="none" xmlns="http://www.w3.org/2000/svg"><rect width="1200" height="630" fill="#080808"/><circle cx="290" cy="315" r="200" stroke="#1a1a1a" stroke-width="1"/><path d="M290 115 A200 200 0 0 1 490 315" stroke="#c9a96e" stroke-width="2" fill="none" stroke-linecap="round" opacity="0.8"/><path d="M490 315 A200 200 0 0 1 290 515" stroke="#7eb8a0" stroke-width="2" fill="none" stroke-linecap="round" opacity="0.8"/><path d="M290 515 A200 200 0 0 1 90 315" stroke="#a08ec9" stroke-width="2" fill="none" stroke-linecap="round" opacity="0.8"/><path d="M90 315 A200 200 0 0 1 290 115" stroke="#c97e7e" stroke-width="2" fill="none" stroke-linecap="round" opacity="0.8"/><circle cx="290" cy="115" r="44" fill="#120e00" stroke="#c9a96e" stroke-width="1.8"/><text x="290" y="122" font-family="Georgia,serif" font-size="36" font-weight="700" fill="#c9a96e" text-anchor="middle">D</text><circle cx="490" cy="315" r="44" fill="#001209" stroke="#7eb8a0" stroke-width="1.8"/><text x="490" y="322" font-family="Georgia,serif" font-size="36" font-weight="700" fill="#7eb8a0" text-anchor="middle">O</text><circle cx="290" cy="515" r="44" fill="#0d0012" stroke="#a08ec9" stroke-width="1.8"/><text x="290" y="522" font-family="Georgia,serif" font-size="36" font-weight="700" fill="#a08ec9" text-anchor="middle">R</text><circle cx="90" cy="315" r="44" fill="#120000" stroke="#c97e7e" stroke-width="1.8"/><text x="90" y="322" font-family="Georgia,serif" font-size="36" font-weight="700" fill="#c97e7e" text-anchor="middle">A</text><circle cx="290" cy="315" r="10" fill="#e8d5a3"/><text x="640" y="195" font-family="Georgia,serif" font-size="148" font-weight="700" fill="#f0ede8" letter-spacing="-4">DORA</text><rect x="640" y="220" width="510" height="1" fill="#252525"/><text x="642" y="255" font-family="Arial,sans-serif" font-size="15" fill="#c9a96e" letter-spacing="5">DECIDE - OBSERVE - REASON - ACT</text><text x="642" y="320" font-family="Georgia,serif" font-size="30" fill="#f0ede8" font-style="italic">Learn agentic AI,</text><text x="642" y="360" font-family="Georgia,serif" font-size="30" fill="#f0ede8" font-style="italic">all 4 stages live.</text><text x="642" y="420" font-family="Arial,sans-serif" font-size="15" fill="#3e3d3a">Single tool, ReAct loop, Memory, Multi-agent.</text><rect x="642" y="460" width="64" height="2" fill="#c9a96e" rx="1"/><text x="642" y="510" font-family="Arial,sans-serif" font-size="13" fill="#333" letter-spacing="3">ALL 4 STAGES LIVE</text><text x="642" y="540" font-family="Arial,sans-serif" font-size="13" fill="#2e2e2c" letter-spacing="3">DORA.BUILDJOYNOW.COM</text></svg>